Coordinates
version=1
nRows=10
nColumns=33
inDegrees=yes

Units are S.I. units (second, meters, Newtons, ...)
Angles are in degrees.

endheader
time	ground_thorax_rot_x	ground_thorax_rot_y	ground_thorax_rot_z	ground_thorax_tx	ground_thorax_ty	ground_thorax_tz	clav_prot_r	clav_elev_r	scapula_abduction_r	scapula_elevation_r	scapula_upward_rot_r	scapula_winging_r	shoulder_elv_r	plane_of_elev_r	axial_rot_r	elbow_flexion_r	pro_sup_r	wrist_flex_r	wrist_dev_r	clav_prot_l	clav_elev_l	scapula_abduction_l	scapula_elevation_l	scapula_upward_rot_l	scapula_winging_l	shoulder_elv_l	plane_of_elev_l	axial_rot_l	elbow_flexion_l	pro_sup_l	wrist_flex_l	wrist_dev_l
      2.89000000	     38.11650595	     11.04111041	     16.86476999	   -250.80158568	    835.77999258	      7.26135576	     14.56404662	     37.33896911	     35.95637656	     45.00000000	    -45.00000000	   3151.21360125	   -108.61416376	    149.39199274	   -116.57948442	   1464.90039913	    152.12793429	     13.85014502	      4.30258111	      9.97801364	    -45.00000000	    -36.51606949	     45.00000000	    -45.00000000	  -2057.50203681	    438.47483841	     16.15370257	    -64.27504881	   1102.39088539	    177.54890003	     -1.78131374	    -10.89034814
      2.90000000	     38.07095658	     11.12149827	     16.90817955	   -251.02208669	    835.06421444	      7.10820724	     14.13654752	     37.51148561	     35.60631757	     45.00000000	    -45.00000000	   3151.43966783	   -108.55109011	    149.30382838	   -116.42519287	   1464.82649892	    151.63587824	     13.43684759	      4.61381735	      9.91886198	    -45.00000000	    -36.48023330	     45.00000000	    -45.00000000	  -2057.56909992	    438.43083850	     16.00585822	    -64.20730865	   1102.29051083	    177.51225673	     -1.22120748	    -10.59313698
      2.91000000	     38.04372854	     11.21665612	     17.07294232	   -251.04130985	    834.36233453	      6.98624551	     14.38121048	     37.21856362	     35.75948136	     45.00000000	    -45.00000000	   3151.38074693	   -108.78348977	    149.44835572	   -116.31855060	   1464.86502602	    151.38154343	     13.67961569	      4.46728685	     10.04340734	    -45.00000000	    -36.38983853	     45.00000000	    -45.00000000	  -2057.47533403	    438.33301104	     16.04356534	    -64.28546967	   1102.20949762	    177.42624689	     -1.52482133	    -10.82257520
      2.92000000	     38.00974690	     11.30929134	     17.08991914	   -250.90120772	    833.68354542	      6.88893233	     14.25098222	     37.60320474	     35.46364411	     45.00000000	    -45.00000000	   3151.62636975	   -108.65051890	    149.32603984	   -116.17792670	   1464.89576912	    151.28974872	     13.54024104	      4.58192010	      9.94940105	    -45.00000000	    -36.43172218	     45.00000000	    -45.00000000	  -2057.54251604	    438.35198835	     15.96315270	    -64.07854097	   1102.20232409	    177.25446318	     -1.24161145	    -10.77065575
      2.93000000	     37.99096320	     11.55673582	     17.34199705	   -250.63585384	    833.02240669	      6.81310273	     14.29441640	     36.92396301	     35.80270891	     45.00000000	    -45.00000000	   3151.32230636	   -109.08649421	    149.70660315	   -116.23840190	   1464.84422746	    151.35425437	     13.62698181	      4.63480804	     10.09370359	    -45.00000000	    -36.24650520	     45.00000000	    -45.00000000	  -2057.55865219	    438.18809009	     16.16844942	    -63.96431133	   1101.98531036	    177.03018707	     -1.38711208	    -10.90113596
      2.94000000	     37.92799500	     11.46942851	     17.33141123	   -250.28461414	    832.38780637	      6.75503712	     14.28781862	     37.68347101	     35.34835438	     45.00000000	    -45.00000000	   3151.64851218	   -108.78125668	    149.39358459	   -116.06673988	   1465.01274232	    151.47427975	     13.55673514	      4.65806721	      9.99195289	    -45.00000000	    -36.36615641	     45.00000000	    -45.00000000	  -2057.62216431	    438.19890072	     16.07642892	    -63.65979176	   1102.13689323	    176.67365853	     -1.23829780	    -10.88446827
      2.95000000	     37.88491201	     11.42120247	     17.44991035	   -249.88659365	    831.78142262	      6.70807746	     14.28377749	     36.97757629	     35.64903992	     45.00000000	    -45.00000000	   3151.56675516	   -109.11262403	    149.52777799	   -116.11939446	   1464.97485965	    151.64555525	     13.58044608	      4.75443463	     10.07766713	    -45.00000000	    -36.37483836	     45.00000000	    -45.00000000	  -2057.55960509	    438.10044598	     16.14240321	    -63.46794597	   1102.17208649	    176.26970432	     -1.32353138	    -10.93023920
      2.96000000	     37.89205550	     11.50793102	     17.48221725	   -249.47609393	    831.20131074	      6.66531431	     14.25306852	     37.56723823	     35.37358124	     45.00000000	    -45.00000000	   3151.65731414	   -108.89847312	    149.45154428	   -116.08600144	   1465.05314139	    151.80915455	     13.55054366	      4.79431610	     10.00745507	    -45.00000000	    -36.41014360	     45.00000000	    -45.00000000	  -2057.67793606	    438.02054281	     16.18959236	    -63.13750001	   1102.29193091	    175.74208974	     -1.25805659	    -10.95078709
      2.97000000	     37.81757185	     11.51672232	     17.64420715	   -249.08878898	    830.65476095	      6.62146298	     14.27164920	     37.16687104	     35.45147406	     45.00000000	    -45.00000000	   3151.64747863	   -108.97234065	    149.49345014	   -116.14401939	   1465.02899273	    151.92321156	     13.55095757	      4.86708997	     10.05064914	    -45.00000000	    -36.37146876	     45.00000000	    -45.00000000	  -2057.69650614	    437.93095937	     16.27014188	    -62.83407609	   1102.23071296	    175.18674275	     -1.26729577	    -11.01665631
      2.98000000	     37.75106487	     11.51756100	     17.78564977	   -248.74433966	    830.13758719	      6.57199346	     14.21839807	     37.49783312	     35.33168090	     45.00000000	    -45.00000000	   3151.70323908	   -108.92890552	    149.44595675	   -116.20903396	   1465.05051526	    151.97522031	     13.52603551	      4.92696351	     10.02287568	    -45.00000000	    -36.36344806	     45.00000000	    -45.00000000	  -2057.73350496	    437.85173370	     16.29727449	    -62.49264376	   1102.21425090	    174.55031134	     -1.24303946	    -11.07218586
